<?xml version="1.0" encoding="utf-8"?>
<!-- created with bpmn-js / http://bpmn.io -->
<!DOCTYPE svg PUBLIC "-//W3C//DTD SVG 1.1//EN" "http://www.w3.org/Graphics/SVG/1.1/DTD/svg11.dtd">
<svg xmlns="http://www.w3.org/2000/svg" xmlns:xlink="http://www.w3.org/1999/xlink" width="1007" height="582" viewBox="21 67 1007 582" version="1.1"><defs><marker viewBox="0 0 20 20" markerWidth="10" markerHeight="10" orient="auto" refX="11" refY="10" id="markerSi9x84wbfsl"><path d="M 1 5 L 11 10 L 1 15 Z" fill="#000000" style="stroke-width: 1px; stroke-linecap: round; stroke-dasharray: 10000px, 1px;"/></marker><marker viewBox="0 0 20 20" markerWidth="20" markerHeight="20" orient="auto" refX="6" refY="6" id="markerSi9x84wbfsn"><circle cx="6" cy="6" r="3.5" fill="#ffffff" stroke="#000000" style="stroke-width: 1px; stroke-linecap: round; stroke-dasharray: 10000px, 1px;"/></marker><marker viewBox="0 0 20 20" markerWidth="20" markerHeight="20" orient="auto" refX="8.5" refY="5" id="markerSi9x84wbfsp"><path d="m 1 5 l 0 -3 l 7 3 l -7 3 z" fill="#ffffff" stroke="#000000" style="stroke-width: 1px; stroke-linecap: butt; stroke-dasharray: 10000px, 1px;"/></marker><marker viewBox="0 0 20 20" markerWidth="10" markerHeight="10" orient="auto" refX="11" refY="10" id="markerSi9x84wbfsr"><path d="M 1 5 L 11 10 L 1 15" fill="#ffffff" stroke="#000000" style="stroke-width: 1px; stroke-linecap: round; stroke-dasharray: 10000px, 1px;"/></marker><marker viewBox="0 0 20 20" markerWidth="10" markerHeight="10" orient="auto" refX="-1" refY="10" id="markerSi9x84wbfst"><path d="M 0 10 L 8 6 L 16 10 L 8 14 Z" fill="#ffffff" stroke="#000000" style="stroke-width: 1px; stroke-linecap: round; stroke-dasharray: 10000px, 1px;"/></marker><marker viewBox="0 0 20 20" markerWidth="10" markerHeight="10" orient="auto" refX="-5" refY="10" id="markerSi9x84wbfsv"><path d="M 1 4 L 5 16" fill="#000000" stroke="#000000" style="stroke-width: 1px; stroke-linecap: round; stroke-dasharray: 10000px, 1px;"/></marker></defs><g class="djs-group" xmlns="http://www.w3.org/2000/svg"><g data-element-id="_cc9778bd-edd8-4df2-ba15-56c310f90e62" transform="matrix(1,0,0,1,64,140)" class="djs-element djs-shape" style="display: block;"><rect fill="none" class="djs-outline" x="-6" y="-6" width="29" height="29"></rect><g class="djs-visual"><circle cx="8.5" cy="8.5" r="9" stroke="#000000" fill="#ffffff" style="stroke-width: 2px;"></circle><path d="m 3.9949999999999997,5.355 l 0,5.95 l 8.924999999999999,0 l 0,-5.95 z l 4.4624999999999995,2.55 l 4.4624999999999995,-2.55" fill="#ffffff" stroke="#000000" style="stroke-width: 1px;"></path></g><rect x="0" y="0" width="17" height="17" fill="none" stroke="#ffffff" style="stroke-opacity: 0; stroke-width: 15px;" class="djs-hit"></rect></g></g><g class="djs-group" xmlns="http://www.w3.org/2000/svg"><g data-element-id="_cc9778bd-edd8-4df2-ba15-56c310f90e62_label" class="djs-element djs-shape" transform="matrix(1,0,0,1,27,157)" style="display: block;"><rect fill="none" class="djs-outline" x="-6" y="-6" width="102" height="36"></rect><g class="djs-visual"><text class=" djs-label" style="font-family: Arial, sans-serif; font-size: 11px;"><tspan x="0.9765625" y="12">Receive customer</tspan><tspan x="26.6484375" y="24">request </tspan></text></g><rect x="0" y="0" width="90" height="24" fill="none" stroke="#ffffff" style="stroke-opacity: 0; stroke-width: 15px;" class="djs-hit"></rect></g></g><g class="djs-group" xmlns="http://www.w3.org/2000/svg"><g data-element-id="_c73a5f4a-72f1-4e11-bb40-2f98da75fb9a" class="djs-element djs-shape" transform="matrix(1,0,0,1,164,119)" style="display: block;"><rect fill="none" class="djs-outline" x="-6" y="-6" width="133" height="71"></rect><g class="djs-visual"><rect x="0" y="0" width="121" height="59" rx="10" ry="10" stroke="#000000" fill="#ffffff" style="stroke-width: 2px;"></rect><text class=" djs-label" style="font-family: Arial, sans-serif; font-size: 12px;"><tspan x="12.8125" y="26">Analyse customer </tspan><tspan x="40.484375" y="40">request </tspan></text><path d="m 15,12 c 0.909,-0.845 1.594,-2.049 1.594,-3.385 0,-2.554 -1.805,-4.62199999 -4.357,-4.62199999 -2.55199998,0 -4.28799998,2.06799999 -4.28799998,4.62199999 0,1.348 0.974,2.562 1.89599998,3.405 -0.52899998,0.187 -5.669,2.097 -5.794,4.7560005 v 6.718 h 17 v -6.718 c 0,-2.2980005 -5.5279996,-4.5950005 -6.0509996,-4.7760005 zm -8,6 l 0,5.5 m 11,0 l 0,-5" fill="none" stroke="#000000" style="stroke-width: 0.5px;"></path><path d="m 15,12 m 2.162,1.009 c 0,2.4470005 -2.158,4.4310005 -4.821,4.4310005 -2.66499998,0 -4.822,-1.981 -4.822,-4.4310005 " fill="none" stroke="#000000" style="stroke-width: 0.5px;"></path><path d="m 15,12 m -6.9,-3.80 c 0,0 2.25099998,-2.358 4.27399998,-1.177 2.024,1.181 4.221,1.537 4.124,0.965 -0.098,-0.57 -0.117,-3.79099999 -4.191,-4.13599999 -3.57499998,0.001 -4.20799998,3.36699999 -4.20699998,4.34799999 z" fill="#000000" stroke="#000000" style="stroke-width: 0.5px;"></path></g><rect x="0" y="0" width="121" height="59" fill="none" stroke="#ffffff" style="stroke-opacity: 0; stroke-width: 15px;" class="djs-hit"></rect></g></g><g class="djs-group" xmlns="http://www.w3.org/2000/svg"><g data-element-id="_a92069f7-377b-4dbd-a1fd-1da071aabf6d" class="djs-element djs-shape" transform="matrix(1,0,0,1,728,82)" style="display: block;"><rect fill="none" class="djs-outline" x="-6" y="-6" width="133" height="71"></rect><g class="djs-visual"><rect x="0" y="0" width="121" height="59" rx="10" ry="10" stroke="#000000" fill="#ffffff" style="stroke-width: 2px;"></rect><text class=" djs-label" style="font-family: Arial, sans-serif; font-size: 12px;"><tspan x="21.8046875" y="33">Replace fridge</tspan></text><path d="m 15,12 c 0.909,-0.845 1.594,-2.049 1.594,-3.385 0,-2.554 -1.805,-4.62199999 -4.357,-4.62199999 -2.55199998,0 -4.28799998,2.06799999 -4.28799998,4.62199999 0,1.348 0.974,2.562 1.89599998,3.405 -0.52899998,0.187 -5.669,2.097 -5.794,4.7560005 v 6.718 h 17 v -6.718 c 0,-2.2980005 -5.5279996,-4.5950005 -6.0509996,-4.7760005 zm -8,6 l 0,5.5 m 11,0 l 0,-5" fill="none" stroke="#000000" style="stroke-width: 0.5px;"></path><path d="m 15,12 m 2.162,1.009 c 0,2.4470005 -2.158,4.4310005 -4.821,4.4310005 -2.66499998,0 -4.822,-1.981 -4.822,-4.4310005 " fill="none" stroke="#000000" style="stroke-width: 0.5px;"></path><path d="m 15,12 m -6.9,-3.80 c 0,0 2.25099998,-2.358 4.27399998,-1.177 2.024,1.181 4.221,1.537 4.124,0.965 -0.098,-0.57 -0.117,-3.79099999 -4.191,-4.13599999 -3.57499998,0.001 -4.20799998,3.36699999 -4.20699998,4.34799999 z" fill="#000000" stroke="#000000" style="stroke-width: 0.5px;"></path></g><rect x="0" y="0" width="121" height="59" fill="none" stroke="#ffffff" style="stroke-opacity: 0; stroke-width: 15px;" class="djs-hit"></rect></g></g><g class="djs-group" xmlns="http://www.w3.org/2000/svg"><g data-element-id="_177bd313-c6c9-4df5-8f82-313beb30d2eb" transform="matrix(1,0,0,1,968,102)" class="djs-element djs-shape" style="display: block;"><rect fill="none" class="djs-outline" x="-6" y="-6" width="29" height="29"></rect><g class="djs-visual"><circle cx="8.5" cy="8.5" r="9" stroke="#000000" fill="#ffffff" style="stroke-width: 4px;"></circle></g><rect x="0" y="0" width="17" height="17" fill="none" stroke="#ffffff" style="stroke-opacity: 0; stroke-width: 15px;" class="djs-hit"></rect></g></g><g class="djs-group" xmlns="http://www.w3.org/2000/svg"><g data-element-id="_177bd313-c6c9-4df5-8f82-313beb30d2eb_label" class="djs-element djs-shape" transform="matrix(1,0,0,1,932,119)" style="display: block;"><rect fill="none" class="djs-outline" x="-6" y="-6" width="102" height="24"></rect><g class="djs-visual"><text class=" djs-label" style="font-family: Arial, sans-serif; font-size: 11px;"><tspan x="6.78125" y="12">Fridge replaced</tspan></text></g><rect x="0" y="0" width="90" height="12" fill="none" stroke="#ffffff" style="stroke-opacity: 0; stroke-width: 15px;" class="djs-hit"></rect></g></g><g class="djs-group" xmlns="http://www.w3.org/2000/svg"><g data-element-id="_604be023-654c-44df-a64c-365254a100cd" transform="matrix(1,0,0,1,369,133)" class="djs-element djs-shape" style="display: block;"><rect fill="none" class="djs-outline" x="-6" y="-6" width="43" height="43"></rect><g class="djs-visual"><polygon points="15.5,0,31,15.5,15.5,31,0,15.5" stroke="#000000" fill="#ffffff" style="stroke-width: 2px;"></polygon></g><rect x="0" y="0" width="31" height="31" fill="none" stroke="#ffffff" style="stroke-opacity: 0; stroke-width: 15px;" class="djs-hit"></rect></g></g><g class="djs-group" xmlns="http://www.w3.org/2000/svg"><g data-element-id="_604be023-654c-44df-a64c-365254a100cd_label" class="djs-element djs-shape" transform="matrix(1,0,0,1,386,164)" style="display: block;"><rect fill="none" class="djs-outline" x="-6" y="-6" width="102" height="24"></rect><g class="djs-visual"><text class=" djs-label" style="font-family: Arial, sans-serif; font-size: 11px;"><tspan x="14.734375" y="12">Service type</tspan></text></g><rect x="0" y="0" width="90" height="12" fill="none" stroke="#ffffff" style="stroke-opacity: 0; stroke-width: 15px;" class="djs-hit"></rect></g></g><g class="djs-group" xmlns="http://www.w3.org/2000/svg"><g data-element-id="_b3dc1906-d4d3-40c5-aaf6-5a74148ae887" transform="matrix(1,0,0,1,960,252)" class="djs-element djs-shape" style="display: block;"><rect fill="none" class="djs-outline" x="-6" y="-6" width="29" height="29"></rect><g class="djs-visual"><circle cx="8.5" cy="8.5" r="9" stroke="#000000" fill="#ffffff" style="stroke-width: 4px;"></circle></g><rect x="0" y="0" width="17" height="17" fill="none" stroke="#ffffff" style="stroke-opacity: 0; stroke-width: 15px;" class="djs-hit"></rect></g></g><g class="djs-group" xmlns="http://www.w3.org/2000/svg"><g data-element-id="_b3dc1906-d4d3-40c5-aaf6-5a74148ae887_label" class="djs-element djs-shape" transform="matrix(1,0,0,1,923,269)" style="display: block;"><rect fill="none" class="djs-outline" x="-6" y="-6" width="102" height="36"></rect><g class="djs-visual"><text class=" djs-label" style="font-family: Arial, sans-serif; font-size: 11px;"><tspan x="1.5859375" y="12">Emergency repair</tspan><tspan x="19.6171875" y="24">completed </tspan></text></g><rect x="0" y="0" width="90" height="24" fill="none" stroke="#ffffff" style="stroke-opacity: 0; stroke-width: 15px;" class="djs-hit"></rect></g></g><g class="djs-group" xmlns="http://www.w3.org/2000/svg"><g data-element-id="_2b6bc88e-d3be-4704-87d1-c264bf704589" transform="matrix(1,0,0,1,369,430)" class="djs-element djs-shape" style="display: block;"><rect fill="none" class="djs-outline" x="-6" y="-6" width="43" height="43"></rect><g class="djs-visual"><polygon points="15.5,0,31,15.5,15.5,31,0,15.5" stroke="#000000" fill="#ffffff" style="stroke-width: 2px;"></polygon></g><rect x="0" y="0" width="31" height="31" fill="none" stroke="#ffffff" style="stroke-opacity: 0; stroke-width: 15px;" class="djs-hit"></rect></g></g><g class="djs-group" xmlns="http://www.w3.org/2000/svg"><g data-element-id="_2b6bc88e-d3be-4704-87d1-c264bf704589_label" class="djs-element djs-shape" transform="matrix(1,0,0,1,293,461)" style="display: block;"><rect fill="none" class="djs-outline" x="-6" y="-6" width="102" height="24"></rect><g class="djs-visual"><text class=" djs-label" style="font-family: Arial, sans-serif; font-size: 11px;"><tspan x="13.8203125" y="12">Service level</tspan></text></g><rect x="0" y="0" width="90" height="12" fill="none" stroke="#ffffff" style="stroke-opacity: 0; stroke-width: 15px;" class="djs-hit"></rect></g></g><g class="djs-group" xmlns="http://www.w3.org/2000/svg"><g data-element-id="_d034722f-751d-4f37-a3d7-47993822e979" class="djs-element djs-shape" transform="matrix(1,0,0,1,504,584)" style="display: block;"><rect fill="none" class="djs-outline" x="-6" y="-6" width="133" height="71"></rect><g class="djs-visual"><rect x="0" y="0" width="121" height="59" rx="10" ry="10" stroke="#000000" fill="#ffffff" style="stroke-width: 2px;"></rect><text class=" djs-label" style="font-family: Arial, sans-serif; font-size: 12px;"><tspan x="22.15625" y="26">Perform repair </tspan><tspan x="19.140625" y="40">(standard level) </tspan></text><path d="m 15,12 c 0.909,-0.845 1.594,-2.049 1.594,-3.385 0,-2.554 -1.805,-4.62199999 -4.357,-4.62199999 -2.55199998,0 -4.28799998,2.06799999 -4.28799998,4.62199999 0,1.348 0.974,2.562 1.89599998,3.405 -0.52899998,0.187 -5.669,2.097 -5.794,4.7560005 v 6.718 h 17 v -6.718 c 0,-2.2980005 -5.5279996,-4.5950005 -6.0509996,-4.7760005 zm -8,6 l 0,5.5 m 11,0 l 0,-5" fill="none" stroke="#000000" style="stroke-width: 0.5px;"></path><path d="m 15,12 m 2.162,1.009 c 0,2.4470005 -2.158,4.4310005 -4.821,4.4310005 -2.66499998,0 -4.822,-1.981 -4.822,-4.4310005 " fill="none" stroke="#000000" style="stroke-width: 0.5px;"></path><path d="m 15,12 m -6.9,-3.80 c 0,0 2.25099998,-2.358 4.27399998,-1.177 2.024,1.181 4.221,1.537 4.124,0.965 -0.098,-0.57 -0.117,-3.79099999 -4.191,-4.13599999 -3.57499998,0.001 -4.20799998,3.36699999 -4.20699998,4.34799999 z" fill="#000000" stroke="#000000" style="stroke-width: 0.5px;"></path></g><rect x="0" y="0" width="121" height="59" fill="none" stroke="#ffffff" style="stroke-opacity: 0; stroke-width: 15px;" class="djs-hit"></rect></g></g><g class="djs-group" xmlns="http://www.w3.org/2000/svg"><g data-element-id="_6a34496f-8cf7-42e5-88a9-d1af98cc3cba" class="djs-element djs-shape" transform="matrix(1,0,0,1,504,416)" style="display: block;"><rect fill="none" class="djs-outline" x="-6" y="-6" width="133" height="71"></rect><g class="djs-visual"><rect x="0" y="0" width="121" height="59" rx="10" ry="10" stroke="#000000" fill="#ffffff" style="stroke-width: 2px;"></rect><text class=" djs-label" style="font-family: Arial, sans-serif; font-size: 12px;"><tspan x="22.15625" y="26">Perform repair </tspan><tspan x="19.15625" y="40">(premium level) </tspan></text><path d="m 15,12 c 0.909,-0.845 1.594,-2.049 1.594,-3.385 0,-2.554 -1.805,-4.62199999 -4.357,-4.62199999 -2.55199998,0 -4.28799998,2.06799999 -4.28799998,4.62199999 0,1.348 0.974,2.562 1.89599998,3.405 -0.52899998,0.187 -5.669,2.097 -5.794,4.7560005 v 6.718 h 17 v -6.718 c 0,-2.2980005 -5.5279996,-4.5950005 -6.0509996,-4.7760005 zm -8,6 l 0,5.5 m 11,0 l 0,-5" fill="none" stroke="#000000" style="stroke-width: 0.5px;"></path><path d="m 15,12 m 2.162,1.009 c 0,2.4470005 -2.158,4.4310005 -4.821,4.4310005 -2.66499998,0 -4.822,-1.981 -4.822,-4.4310005 " fill="none" stroke="#000000" style="stroke-width: 0.5px;"></path><path d="m 15,12 m -6.9,-3.80 c 0,0 2.25099998,-2.358 4.27399998,-1.177 2.024,1.181 4.221,1.537 4.124,0.965 -0.098,-0.57 -0.117,-3.79099999 -4.191,-4.13599999 -3.57499998,0.001 -4.20799998,3.36699999 -4.20699998,4.34799999 z" fill="#000000" stroke="#000000" style="stroke-width: 0.5px;"></path></g><rect x="0" y="0" width="121" height="59" fill="none" stroke="#ffffff" style="stroke-opacity: 0; stroke-width: 15px;" class="djs-hit"></rect></g></g><g class="djs-group" xmlns="http://www.w3.org/2000/svg"><g data-element-id="_dcee5c64-3010-4ee5-b480-bce856e6f29c" transform="matrix(1,0,0,1,962,437)" class="djs-element djs-shape" style="display: block;"><rect fill="none" class="djs-outline" x="-6" y="-6" width="29" height="29"></rect><g class="djs-visual"><circle cx="8.5" cy="8.5" r="9" stroke="#000000" fill="#ffffff" style="stroke-width: 4px;"></circle></g><rect x="0" y="0" width="17" height="17" fill="none" stroke="#ffffff" style="stroke-opacity: 0; stroke-width: 15px;" class="djs-hit"></rect></g></g><g class="djs-group" xmlns="http://www.w3.org/2000/svg"><g data-element-id="_dcee5c64-3010-4ee5-b480-bce856e6f29c_label" class="djs-element djs-shape" transform="matrix(1,0,0,1,925,425)" style="display: block;"><rect fill="none" class="djs-outline" x="-6" y="-6" width="102" height="24"></rect><g class="djs-visual"><text class=" djs-label" style="font-family: Arial, sans-serif; font-size: 11px;"><tspan x="1.890625" y="12">Repair completed</tspan></text></g><rect x="0" y="0" width="90" height="12" fill="none" stroke="#ffffff" style="stroke-opacity: 0; stroke-width: 15px;" class="djs-hit"></rect></g></g><g class="djs-group" xmlns="http://www.w3.org/2000/svg"><g data-element-id="_936c0bfa-5ebf-4546-8d1a-cce556148788" transform="matrix(1,0,0,1,768,245)" class="djs-element djs-shape" style="display: block;"><rect fill="none" class="djs-outline" x="-6" y="-6" width="43" height="43"></rect><g class="djs-visual"><polygon points="15.5,0,31,15.5,15.5,31,0,15.5" stroke="#000000" fill="#ffffff" style="stroke-width: 2px;"></polygon></g><rect x="0" y="0" width="31" height="31" fill="none" stroke="#ffffff" style="stroke-opacity: 0; stroke-width: 15px;" class="djs-hit"></rect></g></g><g class="djs-group" xmlns="http://www.w3.org/2000/svg"><g data-element-id="_936c0bfa-5ebf-4546-8d1a-cce556148788_label" class="djs-element djs-shape" transform="matrix(1,0,0,1,739,276)" style="display: block;"><rect fill="none" class="djs-outline" x="-6" y="-6" width="102" height="24"></rect><g class="djs-visual"><text class=" djs-label" style="font-family: Arial, sans-serif; font-size: 11px;"><tspan x="15.34375" y="12">Successful?</tspan></text></g><rect x="0" y="0" width="90" height="12" fill="none" stroke="#ffffff" style="stroke-opacity: 0; stroke-width: 15px;" class="djs-hit"></rect></g></g><g class="djs-group" xmlns="http://www.w3.org/2000/svg"><g data-element-id="_cd6f230f-13c3-4027-aa3e-57de601a1ab2" class="djs-element djs-shape" transform="matrix(1,0,0,1,504,231)" style="display: block;"><rect fill="none" class="djs-outline" x="-6" y="-6" width="133" height="71"></rect><g class="djs-visual"><rect x="0" y="0" width="121" height="59" rx="10" ry="10" stroke="#000000" fill="#ffffff" style="stroke-width: 2px;"></rect><text class=" djs-label" style="font-family: Arial, sans-serif; font-size: 12px;"><tspan x="7.8125" y="26">Perform emergency </tspan><tspan x="45.15625" y="40">repair </tspan></text><rect x="0" y="0" width="14" height="14" rx="0" ry="0" stroke="#000000" fill="#ffffff" transform="matrix(1,0,0,1,53,39)" style="stroke-width: 1px;"></rect><path d="m53,39 m 7,2 l 0,10 m -5,-5 l 10,0" fill="none" stroke="#000000" style="stroke-width: 2px;"></path></g><rect x="0" y="0" width="121" height="59" fill="none" stroke="#ffffff" style="stroke-opacity: 0; stroke-width: 15px;" class="djs-hit"></rect></g></g><g class="djs-group" xmlns="http://www.w3.org/2000/svg"><g data-element-id="_acb2aca3-8851-48f0-b127-7b3c9db5e18d" class="djs-element djs-connection" style="display: block;"><rect fill="none" class="djs-outline" x="279" y="143" width="96" height="12"></rect><g class="djs-visual"><path d="m  285,149L369,149 " fill="none" stroke="#000000" style="stroke-width: 2px; stroke-linejoin: round; marker-end: url(#markerSi9x84wbfsl);"></path></g><polyline points="285,149 369,149 " fill="none" stroke="#ffffff" style="stroke-opacity: 0; stroke-width: 15px;" class="djs-hit"></polyline></g></g><g class="djs-group" xmlns="http://www.w3.org/2000/svg"><g data-element-id="_acb2aca3-8851-48f0-b127-7b3c9db5e18d_label" class="djs-element djs-shape" transform="matrix(1,0,0,1,251,109)" style="display: none;"><rect fill="none" class="djs-outline" x="-6" y="-6" width="102" height="29"></rect><g class="djs-visual"><text class=" djs-label" style="font-family: Arial, sans-serif; font-size: 11px;"><tspan x="45" y="0"></tspan></text></g><rect x="0" y="0" width="90" height="17" fill="none" stroke="#ffffff" style="stroke-opacity: 0; stroke-width: 15px;" class="djs-hit"></rect></g></g><g class="djs-group" xmlns="http://www.w3.org/2000/svg"><g data-element-id="_b99800c3-c340-460c-a43e-098014a365d0" class="djs-element djs-connection" style="display: block;"><rect fill="none" class="djs-outline" x="379" y="105" width="355" height="34"></rect><g class="djs-visual"><path d="m  385,133L385,111 L728,111 " fill="none" stroke="#000000" style="stroke-width: 2px; stroke-linejoin: round; marker-end: url(#markerSi9x84wbfsl);"></path></g><polyline points="385,133 385,111 728,111 " fill="none" stroke="#ffffff" style="stroke-opacity: 0; stroke-width: 15px;" class="djs-hit"></polyline></g></g><g class="djs-group" xmlns="http://www.w3.org/2000/svg"><g data-element-id="_b99800c3-c340-460c-a43e-098014a365d0_label" class="djs-element djs-shape" transform="matrix(1,0,0,1,309,73)" style="display: block;"><rect fill="none" class="djs-outline" x="-6" y="-6" width="102" height="24"></rect><g class="djs-visual"><text class=" djs-label" style="font-family: Arial, sans-serif; font-size: 11px;"><tspan x="22.6875" y="12">Warranty</tspan></text></g><rect x="0" y="0" width="90" height="12" fill="none" stroke="#ffffff" style="stroke-opacity: 0; stroke-width: 15px;" class="djs-hit"></rect></g></g><g class="djs-group" xmlns="http://www.w3.org/2000/svg"><g data-element-id="_437e5969-1e61-4cb9-aa76-4f8854f32eeb" class="djs-element djs-connection" style="display: block;"><rect fill="none" class="djs-outline" x="394" y="143" width="176" height="94"></rect><g class="djs-visual"><path d="m  400,149L564,149 L564,231 " fill="none" stroke="#000000" style="stroke-width: 2px; stroke-linejoin: round; marker-end: url(#markerSi9x84wbfsl);"></path></g><polyline points="400,149 564,149 564,231 " fill="none" stroke="#ffffff" style="stroke-opacity: 0; stroke-width: 15px;" class="djs-hit"></polyline></g></g><g class="djs-group" xmlns="http://www.w3.org/2000/svg"><g data-element-id="_437e5969-1e61-4cb9-aa76-4f8854f32eeb_label" class="djs-element djs-shape" transform="matrix(1,0,0,1,505,109)" style="display: block;"><rect fill="none" class="djs-outline" x="-6" y="-6" width="102" height="36"></rect><g class="djs-visual"><text class=" djs-label" style="font-family: Arial, sans-serif; font-size: 11px;"><tspan x="17.1796875" y="12">Emergency </tspan><tspan x="27.578125" y="24">service </tspan></text></g><rect x="0" y="0" width="90" height="24" fill="none" stroke="#ffffff" style="stroke-opacity: 0; stroke-width: 15px;" class="djs-hit"></rect></g></g><g class="djs-group" xmlns="http://www.w3.org/2000/svg"><g data-element-id="_ada039b6-94dd-4a15-a6b1-c7fe662c64ee" class="djs-element djs-connection" style="display: block;"><rect fill="none" class="djs-outline" x="378" y="158" width="12" height="278"></rect><g class="djs-visual"><path d="m  384,164L384,430 " fill="none" stroke="#000000" style="stroke-width: 2px; stroke-linejoin: round; marker-end: url(#markerSi9x84wbfsl);"></path></g><polyline points="384,164 384,430 " fill="none" stroke="#ffffff" style="stroke-opacity: 0; stroke-width: 15px;" class="djs-hit"></polyline></g></g><g class="djs-group" xmlns="http://www.w3.org/2000/svg"><g data-element-id="_ada039b6-94dd-4a15-a6b1-c7fe662c64ee_label" class="djs-element djs-shape" transform="matrix(1,0,0,1,377,285)" style="display: block;"><rect fill="none" class="djs-outline" x="-6" y="-6" width="102" height="36"></rect><g class="djs-visual"><text class=" djs-label" style="font-family: Arial, sans-serif; font-size: 11px;"><tspan x="10.1484375" y="12">Regular repair </tspan><tspan x="27.578125" y="24">service </tspan></text></g><rect x="0" y="0" width="90" height="24" fill="none" stroke="#ffffff" style="stroke-opacity: 0; stroke-width: 15px;" class="djs-hit"></rect></g></g><g class="djs-group" xmlns="http://www.w3.org/2000/svg"><g data-element-id="_cddf9325-a85b-4347-8c57-8b909fa77ae9" class="djs-element djs-connection" style="display: block;"><rect fill="none" class="djs-outline" x="378" y="455" width="132" height="160"></rect><g class="djs-visual"><path d="m  384,461L384,609 L504,609 " fill="none" stroke="#000000" style="stroke-width: 2px; stroke-linejoin: round; marker-end: url(#markerSi9x84wbfsl);"></path></g><polyline points="384,461 384,609 504,609 " fill="none" stroke="#ffffff" style="stroke-opacity: 0; stroke-width: 15px;" class="djs-hit"></polyline></g></g><g class="djs-group" xmlns="http://www.w3.org/2000/svg"><g data-element-id="_cddf9325-a85b-4347-8c57-8b909fa77ae9_label" class="djs-element djs-shape" transform="matrix(1,0,0,1,366,614)" style="display: block;"><rect fill="none" class="djs-outline" x="-6" y="-6" width="102" height="24"></rect><g class="djs-visual"><text class=" djs-label" style="font-family: Arial, sans-serif; font-size: 11px;"><tspan x="22.671875" y="12">Standard</tspan></text></g><rect x="0" y="0" width="90" height="12" fill="none" stroke="#ffffff" style="stroke-opacity: 0; stroke-width: 15px;" class="djs-hit"></rect></g></g><g class="djs-group" xmlns="http://www.w3.org/2000/svg"><g data-element-id="_be893987-caec-4605-b078-bd96b7cd6c12" class="djs-element djs-connection" style="display: block;"><rect fill="none" class="djs-outline" x="394" y="440" width="116" height="12"></rect><g class="djs-visual"><path d="m  400,446L504,446 " fill="none" stroke="#000000" style="stroke-width: 2px; stroke-linejoin: round; marker-end: url(#markerSi9x84wbfsl);"></path></g><polyline points="400,446 504,446 " fill="none" stroke="#ffffff" style="stroke-opacity: 0; stroke-width: 15px;" class="djs-hit"></polyline></g></g><g class="djs-group" xmlns="http://www.w3.org/2000/svg"><g data-element-id="_be893987-caec-4605-b078-bd96b7cd6c12_label" class="djs-element djs-shape" transform="matrix(1,0,0,1,348,304)" style="display: block;"><rect fill="none" class="djs-outline" x="-6" y="-6" width="102" height="24"></rect><g class="djs-visual"><text class=" djs-label" style="font-family: Arial, sans-serif; font-size: 11px;"><tspan x="22.9921875" y="12">Premium</tspan></text></g><rect x="0" y="0" width="90" height="12" fill="none" stroke="#ffffff" style="stroke-opacity: 0; stroke-width: 15px;" class="djs-hit"></rect></g></g><g class="djs-group" xmlns="http://www.w3.org/2000/svg"><g data-element-id="_435d9320-bbf4-48ad-aa56-16cb5483e95b" class="djs-element djs-connection" style="display: block;"><rect fill="none" class="djs-outline" x="619" y="448" width="356" height="170"></rect><g class="djs-visual"><path d="m  625,612L969,612 L969,454 " fill="none" stroke="#000000" style="stroke-width: 2px; stroke-linejoin: round; marker-end: url(#markerSi9x84wbfsl);"></path></g><polyline points="625,612 969,612 969,454 " fill="none" stroke="#ffffff" style="stroke-opacity: 0; stroke-width: 15px;" class="djs-hit"></polyline></g></g><g class="djs-group" xmlns="http://www.w3.org/2000/svg"><g data-element-id="_435d9320-bbf4-48ad-aa56-16cb5483e95b_label" class="djs-element djs-shape" transform="matrix(1,0,0,1,933,617)" style="display: none;"><rect fill="none" class="djs-outline" x="-6" y="-6" width="102" height="29"></rect><g class="djs-visual"><text class=" djs-label" style="font-family: Arial, sans-serif; font-size: 11px;"><tspan x="45" y="0"></tspan></text></g><rect x="0" y="0" width="90" height="17" fill="none" stroke="#ffffff" style="stroke-opacity: 0; stroke-width: 15px;" class="djs-hit"></rect></g></g><g class="djs-group" xmlns="http://www.w3.org/2000/svg"><g data-element-id="_d54c5707-af7a-4b36-a059-46681bbf0004" class="djs-element djs-connection hover" style="display: block;"><rect fill="none" class="djs-outline" x="619" y="440" width="349" height="12"></rect><g class="djs-visual"><path d="m  625,446L962,446 " fill="none" stroke="#000000" style="stroke-width: 2px; stroke-linejoin: round; marker-end: url(#markerSi9x84wbfsl);"></path></g><polyline points="625,446 962,446 " fill="none" stroke="#ffffff" style="stroke-opacity: 0; stroke-width: 15px;" class="djs-hit"></polyline></g></g><g class="djs-group" xmlns="http://www.w3.org/2000/svg"><g data-element-id="_d54c5707-af7a-4b36-a059-46681bbf0004_label" class="djs-element djs-shape" transform="matrix(1,0,0,1,616,304)" style="display: none;"><rect fill="none" class="djs-outline" x="-6" y="-6" width="102" height="29"></rect><g class="djs-visual"><text class=" djs-label" style="font-family: Arial, sans-serif; font-size: 11px;"><tspan x="45" y="0"></tspan></text></g><rect x="0" y="0" width="90" height="17" fill="none" stroke="#ffffff" style="stroke-opacity: 0; stroke-width: 15px;" class="djs-hit"></rect></g></g><g class="djs-group" xmlns="http://www.w3.org/2000/svg"><g data-element-id="_b22c01a4-1eef-4f52-9b16-a201a9621619" class="djs-element djs-connection" style="display: block;"><rect fill="none" class="djs-outline" x="619" y="254" width="155" height="12"></rect><g class="djs-visual"><path d="m  625,260L768,260 " fill="none" stroke="#000000" style="stroke-width: 2px; stroke-linejoin: round; marker-end: url(#markerSi9x84wbfsl);"></path></g><polyline points="625,260 768,260 " fill="none" stroke="#ffffff" style="stroke-opacity: 0; stroke-width: 15px;" class="djs-hit"></polyline></g></g><g class="djs-group" xmlns="http://www.w3.org/2000/svg"><g data-element-id="_b22c01a4-1eef-4f52-9b16-a201a9621619_label" class="djs-element djs-shape" transform="matrix(1,0,0,1,557,198)" style="display: none;"><rect fill="none" class="djs-outline" x="-6" y="-6" width="102" height="29"></rect><g class="djs-visual"><text class=" djs-label" style="font-family: Arial, sans-serif; font-size: 11px;"><tspan x="45" y="0"></tspan></text></g><rect x="0" y="0" width="90" height="17" fill="none" stroke="#ffffff" style="stroke-opacity: 0; stroke-width: 15px;" class="djs-hit"></rect></g></g><g class="djs-group" xmlns="http://www.w3.org/2000/svg"><g data-element-id="_c5756bb9-6e6f-42d1-8799-c2d673499eb8" class="djs-element djs-connection" style="display: block;"><rect fill="none" class="djs-outline" x="843" y="106" width="131" height="12"></rect><g class="djs-visual"><path d="m  849,112L968,112 " fill="none" stroke="#000000" style="stroke-width: 2px; stroke-linejoin: round; marker-end: url(#markerSi9x84wbfsl);"></path></g><polyline points="849,112 968,112 " fill="none" stroke="#ffffff" style="stroke-opacity: 0; stroke-width: 15px;" class="djs-hit"></polyline></g></g><g class="djs-group" xmlns="http://www.w3.org/2000/svg"><g data-element-id="_c5756bb9-6e6f-42d1-8799-c2d673499eb8_label" class="djs-element djs-shape" transform="matrix(1,0,0,1,696,71)" style="display: none;"><rect fill="none" class="djs-outline" x="-6" y="-6" width="102" height="29"></rect><g class="djs-visual"><text class=" djs-label" style="font-family: Arial, sans-serif; font-size: 11px;"><tspan x="45" y="0"></tspan></text></g><rect x="0" y="0" width="90" height="17" fill="none" stroke="#ffffff" style="stroke-opacity: 0; stroke-width: 15px;" class="djs-hit"></rect></g></g><g class="djs-group" xmlns="http://www.w3.org/2000/svg"><g data-element-id="_cf380e47-1401-4e7e-b710-193b626e49eb" class="djs-element djs-connection" style="display: block;"><rect fill="none" class="djs-outline" x="793" y="255" width="173" height="12"></rect><g class="djs-visual"><path d="m  799,261L960,261 " fill="none" stroke="#000000" style="stroke-width: 2px; stroke-linejoin: round; marker-end: url(#markerSi9x84wbfsl);"></path></g><polyline points="799,261 960,261 " fill="none" stroke="#ffffff" style="stroke-opacity: 0; stroke-width: 15px;" class="djs-hit"></polyline></g></g><g class="djs-group" xmlns="http://www.w3.org/2000/svg"><g data-element-id="_cf380e47-1401-4e7e-b710-193b626e49eb_label" class="djs-element djs-shape" transform="matrix(1,0,0,1,668,198)" style="display: block;"><rect fill="none" class="djs-outline" x="-6" y="-6" width="102" height="24"></rect><g class="djs-visual"><text class=" djs-label" style="font-family: Arial, sans-serif; font-size: 11px;"><tspan x="36.4375" y="12">yes</tspan></text></g><rect x="0" y="0" width="90" height="12" fill="none" stroke="#ffffff" style="stroke-opacity: 0; stroke-width: 15px;" class="djs-hit"></rect></g></g><g class="djs-group" xmlns="http://www.w3.org/2000/svg"><g data-element-id="_3fb323d5-2c59-487a-af63-804208f6c5cb" class="djs-element djs-connection" style="display: block;"><rect fill="none" class="djs-outline" x="777" y="135" width="12" height="116"></rect><g class="djs-visual"><path d="m  783,245L783,141 " fill="none" stroke="#000000" style="stroke-width: 2px; stroke-linejoin: round; marker-end: url(#markerSi9x84wbfsl);"></path></g><polyline points="783,245 783,141 " fill="none" stroke="#ffffff" style="stroke-opacity: 0; stroke-width: 15px;" class="djs-hit"></polyline></g></g><g class="djs-group" xmlns="http://www.w3.org/2000/svg"><g data-element-id="_3fb323d5-2c59-487a-af63-804208f6c5cb_label" class="djs-element djs-shape" transform="matrix(1,0,0,1,623,131)" style="display: block;"><rect fill="none" class="djs-outline" x="-6" y="-6" width="102" height="24"></rect><g class="djs-visual"><text class=" djs-label" style="font-family: Arial, sans-serif; font-size: 11px;"><tspan x="38.875" y="12">no</tspan></text></g><rect x="0" y="0" width="90" height="12" fill="none" stroke="#ffffff" style="stroke-opacity: 0; stroke-width: 15px;" class="djs-hit"></rect></g></g><g class="djs-group" xmlns="http://www.w3.org/2000/svg"><g data-element-id="_a5af06ae-bd69-464d-bbaf-3d7418702d77" class="djs-element djs-connection" style="display: block;"><rect fill="none" class="djs-outline" x="75" y="143" width="95" height="12"></rect><g class="djs-visual"><path d="m  81,149L164,149 " fill="none" stroke="#000000" style="stroke-width: 2px; stroke-linejoin: round; marker-end: url(#markerSi9x84wbfsl);"></path></g><polyline points="81,149 164,149 " fill="none" stroke="#ffffff" style="stroke-opacity: 0; stroke-width: 15px;" class="djs-hit"></polyline></g></g><g class="djs-group" xmlns="http://www.w3.org/2000/svg"><g data-element-id="_a5af06ae-bd69-464d-bbaf-3d7418702d77_label" class="djs-element djs-shape" transform="matrix(1,0,0,1,97,109)" style="display: none;"><rect fill="none" class="djs-outline" x="-6" y="-6" width="102" height="29"></rect><g class="djs-visual"><text class=" djs-label" style="font-family: Arial, sans-serif; font-size: 11px;"><tspan x="45" y="0"></tspan></text></g><rect x="0" y="0" width="90" height="17" fill="none" stroke="#ffffff" style="stroke-opacity: 0; stroke-width: 15px;" class="djs-hit"></rect></g></g></svg>